<mxfile host="app.diagrams.net" modified="2024-04-08T15:04:31.376Z" agent="Mozilla/5.0 (Macintosh; Intel Mac OS X 10_15_7) AppleWebKit/537.36 (KHTML, like Gecko) Chrome/123.0.0.0 Safari/537.36" etag="4inEIlo6hVFIPeozkFsd" version="24.2.2" type="github">
  <diagram name="Page-1" id="IohD2jZ7NSLXi6qwIVtM">
    <mxGraphModel dx="1890" dy="741" grid="1" gridSize="10" guides="1" tooltips="1" connect="1" arrows="1" fold="1" page="1" pageScale="1" pageWidth="583" pageHeight="827" math="0" shadow="0">
      <root>
        <mxCell id="0" />
        <mxCell id="1" parent="0" />
        <mxCell id="JIciVttdm8tCTKpBVyrq-1" value="main" style="rounded=0;whiteSpace=wrap;html=1;" vertex="1" parent="1">
          <mxGeometry x="-240" y="160" width="1080" height="60" as="geometry" />
        </mxCell>
        <mxCell id="JIciVttdm8tCTKpBVyrq-2" value="development" style="rounded=0;whiteSpace=wrap;html=1;" vertex="1" parent="1">
          <mxGeometry x="-240" y="400" width="1080" height="60" as="geometry" />
        </mxCell>
        <mxCell id="JIciVttdm8tCTKpBVyrq-4" value="" style="endArrow=classic;html=1;rounded=0;exitX=0.075;exitY=-0.02;exitDx=0;exitDy=0;exitPerimeter=0;entryX=0.074;entryY=1.004;entryDx=0;entryDy=0;entryPerimeter=0;" edge="1" parent="1" source="JIciVttdm8tCTKpBVyrq-2" target="JIciVttdm8tCTKpBVyrq-1">
          <mxGeometry width="50" height="50" relative="1" as="geometry">
            <mxPoint x="400" y="470" as="sourcePoint" />
            <mxPoint x="-170" y="250" as="targetPoint" />
          </mxGeometry>
        </mxCell>
        <mxCell id="JIciVttdm8tCTKpBVyrq-7" value="" style="endArrow=classic;html=1;rounded=0;exitX=0.074;exitY=0.003;exitDx=0;exitDy=0;exitPerimeter=0;entryX=0.44;entryY=1.017;entryDx=0;entryDy=0;entryPerimeter=0;" edge="1" parent="1" source="JIciVttdm8tCTKpBVyrq-1" target="JIciVttdm8tCTKpBVyrq-8">
          <mxGeometry width="50" height="50" relative="1" as="geometry">
            <mxPoint x="-130" y="150" as="sourcePoint" />
            <mxPoint x="-160" y="90" as="targetPoint" />
          </mxGeometry>
        </mxCell>
        <mxCell id="JIciVttdm8tCTKpBVyrq-8" value="rc/13.0" style="rounded=0;whiteSpace=wrap;html=1;" vertex="1" parent="1">
          <mxGeometry x="-190" y="100" width="70" height="20" as="geometry" />
        </mxCell>
        <mxCell id="JIciVttdm8tCTKpBVyrq-9" value="impl-team/feature" style="rounded=1;whiteSpace=wrap;html=1;" vertex="1" parent="1">
          <mxGeometry x="-10" y="280" width="100" height="40" as="geometry" />
        </mxCell>
        <mxCell id="JIciVttdm8tCTKpBVyrq-10" value="" style="endArrow=classic;html=1;rounded=0;exitX=0.217;exitY=1.001;exitDx=0;exitDy=0;exitPerimeter=0;entryX=0.207;entryY=-0.005;entryDx=0;entryDy=0;entryPerimeter=0;" edge="1" parent="1" source="JIciVttdm8tCTKpBVyrq-1" target="JIciVttdm8tCTKpBVyrq-9">
          <mxGeometry width="50" height="50" relative="1" as="geometry">
            <mxPoint x="260" y="330" as="sourcePoint" />
            <mxPoint x="310" y="280" as="targetPoint" />
          </mxGeometry>
        </mxCell>
        <mxCell id="JIciVttdm8tCTKpBVyrq-15" value="" style="endArrow=classic;html=1;rounded=0;exitX=0.914;exitY=-0.016;exitDx=0;exitDy=0;entryX=0.301;entryY=1.006;entryDx=0;entryDy=0;entryPerimeter=0;exitPerimeter=0;" edge="1" parent="1" source="JIciVttdm8tCTKpBVyrq-9" target="JIciVttdm8tCTKpBVyrq-1">
          <mxGeometry width="50" height="50" relative="1" as="geometry">
            <mxPoint x="85" y="290" as="sourcePoint" />
            <mxPoint x="220" y="250" as="targetPoint" />
          </mxGeometry>
        </mxCell>
        <mxCell id="JIciVttdm8tCTKpBVyrq-17" value="" style="endArrow=classic;html=1;rounded=0;exitX=0.301;exitY=-0.011;exitDx=0;exitDy=0;exitPerimeter=0;entryX=0.5;entryY=1;entryDx=0;entryDy=0;" edge="1" parent="1" source="JIciVttdm8tCTKpBVyrq-1" target="JIciVttdm8tCTKpBVyrq-18">
          <mxGeometry width="50" height="50" relative="1" as="geometry">
            <mxPoint x="130" y="250" as="sourcePoint" />
            <mxPoint x="85" y="90" as="targetPoint" />
          </mxGeometry>
        </mxCell>
        <mxCell id="JIciVttdm8tCTKpBVyrq-18" value="release/13.0.1" style="rounded=0;whiteSpace=wrap;html=1;" vertex="1" parent="1">
          <mxGeometry x="40" y="100" width="90" height="20" as="geometry" />
        </mxCell>
        <mxCell id="JIciVttdm8tCTKpBVyrq-19" value="" style="endArrow=classic;html=1;rounded=0;exitX=0.911;exitY=1.018;exitDx=0;exitDy=0;entryX=0.302;entryY=-0.025;entryDx=0;entryDy=0;entryPerimeter=0;exitPerimeter=0;" edge="1" parent="1" source="JIciVttdm8tCTKpBVyrq-9" target="JIciVttdm8tCTKpBVyrq-2">
          <mxGeometry width="50" height="50" relative="1" as="geometry">
            <mxPoint x="85" y="310" as="sourcePoint" />
            <mxPoint x="85" y="399" as="targetPoint" />
          </mxGeometry>
        </mxCell>
        <mxCell id="JIciVttdm8tCTKpBVyrq-22" value="dev-team/hotfix" style="rounded=1;whiteSpace=wrap;html=1;" vertex="1" parent="1">
          <mxGeometry x="160" y="280" width="110" height="40" as="geometry" />
        </mxCell>
        <mxCell id="JIciVttdm8tCTKpBVyrq-27" value="" style="endArrow=classic;html=1;rounded=0;exitX=0.37;exitY=1.003;exitDx=0;exitDy=0;exitPerimeter=0;entryX=0.5;entryY=0;entryDx=0;entryDy=0;" edge="1" parent="1" source="JIciVttdm8tCTKpBVyrq-1" target="JIciVttdm8tCTKpBVyrq-22">
          <mxGeometry width="50" height="50" relative="1" as="geometry">
            <mxPoint x="170" y="220" as="sourcePoint" />
            <mxPoint x="220" y="270" as="targetPoint" />
          </mxGeometry>
        </mxCell>
        <mxCell id="JIciVttdm8tCTKpBVyrq-28" value="" style="endArrow=classic;html=1;rounded=0;entryX=0.524;entryY=-0.01;entryDx=0;entryDy=0;entryPerimeter=0;exitX=1;exitY=0.5;exitDx=0;exitDy=0;" edge="1" parent="1" source="JIciVttdm8tCTKpBVyrq-22" target="JIciVttdm8tCTKpBVyrq-2">
          <mxGeometry width="50" height="50" relative="1" as="geometry">
            <mxPoint x="325" y="310" as="sourcePoint" />
            <mxPoint x="380" y="290" as="targetPoint" />
          </mxGeometry>
        </mxCell>
        <mxCell id="JIciVttdm8tCTKpBVyrq-29" value="" style="endArrow=classic;html=1;rounded=0;entryX=0.523;entryY=0.983;entryDx=0;entryDy=0;entryPerimeter=0;exitX=0.999;exitY=0.428;exitDx=0;exitDy=0;exitPerimeter=0;" edge="1" parent="1" source="JIciVttdm8tCTKpBVyrq-22" target="JIciVttdm8tCTKpBVyrq-1">
          <mxGeometry width="50" height="50" relative="1" as="geometry">
            <mxPoint x="325" y="290" as="sourcePoint" />
            <mxPoint x="340" y="230" as="targetPoint" />
          </mxGeometry>
        </mxCell>
        <mxCell id="JIciVttdm8tCTKpBVyrq-32" value="release/13.0.2" style="rounded=0;whiteSpace=wrap;html=1;" vertex="1" parent="1">
          <mxGeometry x="270" y="100" width="89" height="20" as="geometry" />
        </mxCell>
        <mxCell id="JIciVttdm8tCTKpBVyrq-33" value="" style="endArrow=classic;html=1;rounded=0;exitX=0.521;exitY=-0.002;exitDx=0;exitDy=0;exitPerimeter=0;entryX=0.588;entryY=0.987;entryDx=0;entryDy=0;entryPerimeter=0;" edge="1" parent="1" source="JIciVttdm8tCTKpBVyrq-1" target="JIciVttdm8tCTKpBVyrq-32">
          <mxGeometry width="50" height="50" relative="1" as="geometry">
            <mxPoint x="370" y="140" as="sourcePoint" />
            <mxPoint x="320" y="120" as="targetPoint" />
          </mxGeometry>
        </mxCell>
        <mxCell id="JIciVttdm8tCTKpBVyrq-35" value="feature/add-item" style="rounded=0;whiteSpace=wrap;html=1;" vertex="1" parent="1">
          <mxGeometry x="-80" y="500" width="100" height="40" as="geometry" />
        </mxCell>
        <mxCell id="JIciVttdm8tCTKpBVyrq-36" value="" style="endArrow=classic;html=1;rounded=0;entryX=0.25;entryY=0;entryDx=0;entryDy=0;exitX=0.148;exitY=1.003;exitDx=0;exitDy=0;exitPerimeter=0;" edge="1" parent="1" source="JIciVttdm8tCTKpBVyrq-2" target="JIciVttdm8tCTKpBVyrq-35">
          <mxGeometry width="50" height="50" relative="1" as="geometry">
            <mxPoint y="461" as="sourcePoint" />
            <mxPoint x="250" y="380" as="targetPoint" />
          </mxGeometry>
        </mxCell>
        <mxCell id="JIciVttdm8tCTKpBVyrq-37" value="" style="endArrow=classic;html=1;rounded=0;entryX=0.243;entryY=1.019;entryDx=0;entryDy=0;entryPerimeter=0;exitX=0.75;exitY=0;exitDx=0;exitDy=0;" edge="1" parent="1" source="JIciVttdm8tCTKpBVyrq-35" target="JIciVttdm8tCTKpBVyrq-2">
          <mxGeometry width="50" height="50" relative="1" as="geometry">
            <mxPoint x="159" y="515" as="sourcePoint" />
            <mxPoint x="190" y="480" as="targetPoint" />
          </mxGeometry>
        </mxCell>
        <mxCell id="JIciVttdm8tCTKpBVyrq-38" value="bugfix/fix-test" style="rounded=0;whiteSpace=wrap;html=1;" vertex="1" parent="1">
          <mxGeometry x="310" y="500" width="90" height="40" as="geometry" />
        </mxCell>
        <mxCell id="JIciVttdm8tCTKpBVyrq-39" value="" style="endArrow=classic;html=1;rounded=0;entryX=0.25;entryY=0;entryDx=0;entryDy=0;exitX=0.506;exitY=1.024;exitDx=0;exitDy=0;exitPerimeter=0;" edge="1" parent="1" source="JIciVttdm8tCTKpBVyrq-2" target="JIciVttdm8tCTKpBVyrq-38">
          <mxGeometry width="50" height="50" relative="1" as="geometry">
            <mxPoint x="200" y="470" as="sourcePoint" />
            <mxPoint x="300" y="390" as="targetPoint" />
          </mxGeometry>
        </mxCell>
        <mxCell id="JIciVttdm8tCTKpBVyrq-41" value="" style="endArrow=classic;html=1;rounded=0;exitX=0.732;exitY=-0.032;exitDx=0;exitDy=0;exitPerimeter=0;entryX=0.591;entryY=0.987;entryDx=0;entryDy=0;entryPerimeter=0;" edge="1" parent="1" source="JIciVttdm8tCTKpBVyrq-38" target="JIciVttdm8tCTKpBVyrq-2">
          <mxGeometry width="50" height="50" relative="1" as="geometry">
            <mxPoint x="220" y="560" as="sourcePoint" />
            <mxPoint x="399" y="463" as="targetPoint" />
          </mxGeometry>
        </mxCell>
        <mxCell id="JIciVttdm8tCTKpBVyrq-42" value="" style="endArrow=classic;html=1;rounded=0;exitX=0.649;exitY=-0.026;exitDx=0;exitDy=0;exitPerimeter=0;entryX=0.648;entryY=1.005;entryDx=0;entryDy=0;entryPerimeter=0;" edge="1" parent="1" source="JIciVttdm8tCTKpBVyrq-2" target="JIciVttdm8tCTKpBVyrq-1">
          <mxGeometry width="50" height="50" relative="1" as="geometry">
            <mxPoint x="330" y="350" as="sourcePoint" />
            <mxPoint x="380" y="300" as="targetPoint" />
          </mxGeometry>
        </mxCell>
        <mxCell id="JIciVttdm8tCTKpBVyrq-43" value="" style="endArrow=classic;html=1;rounded=0;entryX=0.561;entryY=1.007;entryDx=0;entryDy=0;exitX=0.648;exitY=-0.007;exitDx=0;exitDy=0;exitPerimeter=0;entryPerimeter=0;" edge="1" parent="1" source="JIciVttdm8tCTKpBVyrq-1" target="JIciVttdm8tCTKpBVyrq-44">
          <mxGeometry width="50" height="50" relative="1" as="geometry">
            <mxPoint x="465" y="159" as="sourcePoint" />
            <mxPoint x="460" y="130" as="targetPoint" />
          </mxGeometry>
        </mxCell>
        <mxCell id="JIciVttdm8tCTKpBVyrq-44" value="rc/13.1" style="rounded=0;whiteSpace=wrap;html=1;" vertex="1" parent="1">
          <mxGeometry x="420" y="100" width="70" height="20" as="geometry" />
        </mxCell>
        <mxCell id="JIciVttdm8tCTKpBVyrq-45" value="" style="endArrow=classic;html=1;rounded=0;exitX=0.443;exitY=1.03;exitDx=0;exitDy=0;exitPerimeter=0;entryX=0.105;entryY=-0.027;entryDx=0;entryDy=0;entryPerimeter=0;" edge="1" parent="1" source="JIciVttdm8tCTKpBVyrq-2" target="JIciVttdm8tCTKpBVyrq-46">
          <mxGeometry width="50" height="50" relative="1" as="geometry">
            <mxPoint x="260" y="560" as="sourcePoint" />
            <mxPoint x="300" y="600" as="targetPoint" />
          </mxGeometry>
        </mxCell>
        <mxCell id="JIciVttdm8tCTKpBVyrq-46" value="feature/part-1&lt;div&gt;&lt;i&gt;&lt;font style=&quot;font-size: 10px;&quot;&gt;feature toggle X&amp;nbsp;&lt;/font&gt;&lt;/i&gt;&lt;/div&gt;" style="rounded=0;whiteSpace=wrap;html=1;" vertex="1" parent="1">
          <mxGeometry x="305" y="600" width="100" height="40" as="geometry" />
        </mxCell>
        <mxCell id="JIciVttdm8tCTKpBVyrq-47" value="" style="endArrow=classic;html=1;rounded=0;exitX=0.916;exitY=-0.004;exitDx=0;exitDy=0;exitPerimeter=0;entryX=0.631;entryY=0.998;entryDx=0;entryDy=0;entryPerimeter=0;" edge="1" parent="1" source="JIciVttdm8tCTKpBVyrq-46" target="JIciVttdm8tCTKpBVyrq-2">
          <mxGeometry width="50" height="50" relative="1" as="geometry">
            <mxPoint x="370" y="550" as="sourcePoint" />
            <mxPoint x="420" y="500" as="targetPoint" />
          </mxGeometry>
        </mxCell>
        <mxCell id="JIciVttdm8tCTKpBVyrq-49" value="feature/part-2&lt;div&gt;&lt;i&gt;&lt;font style=&quot;font-size: 10px;&quot;&gt;feature toggle X&amp;nbsp;&lt;/font&gt;&lt;/i&gt;&lt;/div&gt;" style="rounded=0;whiteSpace=wrap;html=1;" vertex="1" parent="1">
          <mxGeometry x="480" y="520" width="100" height="40" as="geometry" />
        </mxCell>
        <mxCell id="JIciVttdm8tCTKpBVyrq-50" value="" style="endArrow=classic;html=1;rounded=0;exitX=0.665;exitY=1.005;exitDx=0;exitDy=0;exitPerimeter=0;entryX=0.208;entryY=-0.019;entryDx=0;entryDy=0;entryPerimeter=0;" edge="1" parent="1" source="JIciVttdm8tCTKpBVyrq-2" target="JIciVttdm8tCTKpBVyrq-49">
          <mxGeometry width="50" height="50" relative="1" as="geometry">
            <mxPoint x="510" y="510" as="sourcePoint" />
            <mxPoint x="560" y="460" as="targetPoint" />
          </mxGeometry>
        </mxCell>
        <mxCell id="JIciVttdm8tCTKpBVyrq-51" value="" style="endArrow=classic;html=1;rounded=0;exitX=0.804;exitY=-0.019;exitDx=0;exitDy=0;exitPerimeter=0;entryX=0.763;entryY=0.993;entryDx=0;entryDy=0;entryPerimeter=0;" edge="1" parent="1" source="JIciVttdm8tCTKpBVyrq-49" target="JIciVttdm8tCTKpBVyrq-2">
          <mxGeometry width="50" height="50" relative="1" as="geometry">
            <mxPoint x="510" y="510" as="sourcePoint" />
            <mxPoint x="560" y="460" as="targetPoint" />
          </mxGeometry>
        </mxCell>
        <mxCell id="JIciVttdm8tCTKpBVyrq-53" value="remove&lt;div&gt;feature toggle X&lt;/div&gt;" style="text;html=1;align=left;verticalAlign=middle;whiteSpace=wrap;rounded=0;" vertex="1" parent="1">
          <mxGeometry x="580" y="480" width="100" height="30" as="geometry" />
        </mxCell>
        <mxCell id="JIciVttdm8tCTKpBVyrq-54" value="" style="endArrow=classic;html=1;rounded=0;exitX=0.76;exitY=-0.023;exitDx=0;exitDy=0;exitPerimeter=0;entryX=0.648;entryY=1.005;entryDx=0;entryDy=0;entryPerimeter=0;" edge="1" parent="1" source="JIciVttdm8tCTKpBVyrq-2">
          <mxGeometry width="50" height="50" relative="1" as="geometry">
            <mxPoint x="581" y="398" as="sourcePoint" />
            <mxPoint x="580" y="220" as="targetPoint" />
          </mxGeometry>
        </mxCell>
        <mxCell id="JIciVttdm8tCTKpBVyrq-55" value="" style="endArrow=classic;html=1;rounded=0;entryX=0.562;entryY=0.994;entryDx=0;entryDy=0;exitX=0.523;exitY=-0.008;exitDx=0;exitDy=0;exitPerimeter=0;entryPerimeter=0;" edge="1" parent="1" target="JIciVttdm8tCTKpBVyrq-56">
          <mxGeometry width="50" height="50" relative="1" as="geometry">
            <mxPoint x="579.49" y="160" as="sourcePoint" />
            <mxPoint x="579.49" y="80" as="targetPoint" />
          </mxGeometry>
        </mxCell>
        <mxCell id="JIciVttdm8tCTKpBVyrq-56" value="rc/13.2" style="rounded=0;whiteSpace=wrap;html=1;" vertex="1" parent="1">
          <mxGeometry x="540" y="100" width="70" height="20" as="geometry" />
        </mxCell>
        <mxCell id="JIciVttdm8tCTKpBVyrq-58" value="development/next&lt;div&gt;&lt;i&gt;&lt;font style=&quot;font-size: 10px;&quot;&gt;breaking changes&lt;/font&gt;&lt;/i&gt;&lt;/div&gt;" style="rounded=0;whiteSpace=wrap;html=1;" vertex="1" parent="1">
          <mxGeometry x="-160" y="680" width="1000" height="60" as="geometry" />
        </mxCell>
        <mxCell id="JIciVttdm8tCTKpBVyrq-59" value="" style="endArrow=classic;html=1;rounded=0;exitX=0.109;exitY=1.02;exitDx=0;exitDy=0;exitPerimeter=0;entryX=0.04;entryY=-0.078;entryDx=0;entryDy=0;entryPerimeter=0;" edge="1" parent="1" source="JIciVttdm8tCTKpBVyrq-2" target="JIciVttdm8tCTKpBVyrq-58">
          <mxGeometry width="50" height="50" relative="1" as="geometry">
            <mxPoint x="90" y="560" as="sourcePoint" />
            <mxPoint x="140" y="510" as="targetPoint" />
          </mxGeometry>
        </mxCell>
        <mxCell id="JIciVttdm8tCTKpBVyrq-60" value="" style="endArrow=classic;html=1;rounded=0;exitX=0.355;exitY=1.01;exitDx=0;exitDy=0;exitPerimeter=0;entryX=0.304;entryY=-0.013;entryDx=0;entryDy=0;entryPerimeter=0;" edge="1" parent="1" source="JIciVttdm8tCTKpBVyrq-2" target="JIciVttdm8tCTKpBVyrq-58">
          <mxGeometry width="50" height="50" relative="1" as="geometry">
            <mxPoint x="270" y="540" as="sourcePoint" />
            <mxPoint x="320" y="490" as="targetPoint" />
          </mxGeometry>
        </mxCell>
        <mxCell id="JIciVttdm8tCTKpBVyrq-61" value="periodic merge" style="text;html=1;align=left;verticalAlign=middle;whiteSpace=wrap;rounded=0;" vertex="1" parent="1">
          <mxGeometry x="150" y="535" width="50" height="30" as="geometry" />
        </mxCell>
        <mxCell id="JIciVttdm8tCTKpBVyrq-62" value="" style="endArrow=classic;html=1;rounded=0;exitX=0.883;exitY=-0.008;exitDx=0;exitDy=0;exitPerimeter=0;entryX=0.926;entryY=0.999;entryDx=0;entryDy=0;entryPerimeter=0;" edge="1" parent="1" source="JIciVttdm8tCTKpBVyrq-58" target="JIciVttdm8tCTKpBVyrq-2">
          <mxGeometry width="50" height="50" relative="1" as="geometry">
            <mxPoint x="430" y="630" as="sourcePoint" />
            <mxPoint x="723" y="460" as="targetPoint" />
          </mxGeometry>
        </mxCell>
        <mxCell id="JIciVttdm8tCTKpBVyrq-63" value="" style="endArrow=classic;html=1;rounded=0;exitX=0.926;exitY=-0.028;exitDx=0;exitDy=0;exitPerimeter=0;entryX=0.926;entryY=0.999;entryDx=0;entryDy=0;entryPerimeter=0;" edge="1" parent="1" source="JIciVttdm8tCTKpBVyrq-2" target="JIciVttdm8tCTKpBVyrq-1">
          <mxGeometry width="50" height="50" relative="1" as="geometry">
            <mxPoint x="722" y="400" as="sourcePoint" />
            <mxPoint x="722" y="220" as="targetPoint" />
          </mxGeometry>
        </mxCell>
        <mxCell id="JIciVttdm8tCTKpBVyrq-64" value="" style="endArrow=classic;html=1;rounded=0;entryX=0.5;entryY=1;entryDx=0;entryDy=0;exitX=0.926;exitY=-0.015;exitDx=0;exitDy=0;exitPerimeter=0;" edge="1" parent="1" source="JIciVttdm8tCTKpBVyrq-1" target="JIciVttdm8tCTKpBVyrq-65">
          <mxGeometry width="50" height="50" relative="1" as="geometry">
            <mxPoint x="720" y="160" as="sourcePoint" />
            <mxPoint x="720" y="80" as="targetPoint" />
          </mxGeometry>
        </mxCell>
        <mxCell id="JIciVttdm8tCTKpBVyrq-65" value="release 14.0" style="rounded=0;whiteSpace=wrap;html=1;" vertex="1" parent="1">
          <mxGeometry x="720" y="60" width="80" height="20" as="geometry" />
        </mxCell>
        <mxCell id="JIciVttdm8tCTKpBVyrq-72" value="dev-team/rc-fixes" style="rounded=0;whiteSpace=wrap;html=1;" vertex="1" parent="1">
          <mxGeometry x="-140" y="270" width="100" height="30" as="geometry" />
        </mxCell>
        <mxCell id="JIciVttdm8tCTKpBVyrq-73" value="" style="endArrow=classic;html=1;rounded=0;exitX=0.091;exitY=0.991;exitDx=0;exitDy=0;exitPerimeter=0;entryX=0.1;entryY=0;entryDx=0;entryDy=0;entryPerimeter=0;" edge="1" parent="1" source="JIciVttdm8tCTKpBVyrq-1" target="JIciVttdm8tCTKpBVyrq-72">
          <mxGeometry width="50" height="50" relative="1" as="geometry">
            <mxPoint x="-20" y="310" as="sourcePoint" />
            <mxPoint x="30" y="260" as="targetPoint" />
          </mxGeometry>
        </mxCell>
        <mxCell id="JIciVttdm8tCTKpBVyrq-74" value="" style="endArrow=classic;html=1;rounded=0;exitX=0.735;exitY=1.015;exitDx=0;exitDy=0;exitPerimeter=0;entryX=0.176;entryY=-0.012;entryDx=0;entryDy=0;entryPerimeter=0;" edge="1" parent="1" source="JIciVttdm8tCTKpBVyrq-72" target="JIciVttdm8tCTKpBVyrq-2">
          <mxGeometry width="50" height="50" relative="1" as="geometry">
            <mxPoint x="-20" y="310" as="sourcePoint" />
            <mxPoint x="30" y="260" as="targetPoint" />
          </mxGeometry>
        </mxCell>
        <mxCell id="JIciVttdm8tCTKpBVyrq-75" value="" style="endArrow=classic;html=1;rounded=0;exitX=0.735;exitY=-0.01;exitDx=0;exitDy=0;exitPerimeter=0;entryX=0.175;entryY=1.008;entryDx=0;entryDy=0;entryPerimeter=0;" edge="1" parent="1" source="JIciVttdm8tCTKpBVyrq-72" target="JIciVttdm8tCTKpBVyrq-1">
          <mxGeometry width="50" height="50" relative="1" as="geometry">
            <mxPoint x="-50" y="320" as="sourcePoint" />
            <mxPoint y="270" as="targetPoint" />
          </mxGeometry>
        </mxCell>
        <mxCell id="JIciVttdm8tCTKpBVyrq-77" value="release/13.0" style="rounded=0;whiteSpace=wrap;html=1;" vertex="1" parent="1">
          <mxGeometry x="-100" y="60" width="100" height="20" as="geometry" />
        </mxCell>
        <mxCell id="JIciVttdm8tCTKpBVyrq-78" value="" style="endArrow=classic;html=1;rounded=0;exitX=0.174;exitY=-0.001;exitDx=0;exitDy=0;exitPerimeter=0;entryX=0.473;entryY=0.996;entryDx=0;entryDy=0;entryPerimeter=0;" edge="1" parent="1" source="JIciVttdm8tCTKpBVyrq-1" target="JIciVttdm8tCTKpBVyrq-77">
          <mxGeometry width="50" height="50" relative="1" as="geometry">
            <mxPoint x="-50" y="180" as="sourcePoint" />
            <mxPoint y="130" as="targetPoint" />
          </mxGeometry>
        </mxCell>
        <mxCell id="JIciVttdm8tCTKpBVyrq-82" value="" style="endArrow=classic;html=1;rounded=0;exitX=0.074;exitY=0.998;exitDx=0;exitDy=0;exitPerimeter=0;" edge="1" parent="1" source="JIciVttdm8tCTKpBVyrq-1">
          <mxGeometry width="50" height="50" relative="1" as="geometry">
            <mxPoint x="-100" y="230" as="sourcePoint" />
            <mxPoint x="-160" y="160" as="targetPoint" />
          </mxGeometry>
        </mxCell>
        <mxCell id="JIciVttdm8tCTKpBVyrq-83" value="" style="endArrow=classic;html=1;rounded=0;exitX=0.174;exitY=1.003;exitDx=0;exitDy=0;exitPerimeter=0;entryX=0.174;entryY=0.002;entryDx=0;entryDy=0;entryPerimeter=0;" edge="1" parent="1" source="JIciVttdm8tCTKpBVyrq-1" target="JIciVttdm8tCTKpBVyrq-1">
          <mxGeometry width="50" height="50" relative="1" as="geometry">
            <mxPoint x="-50" y="230" as="sourcePoint" />
            <mxPoint y="180" as="targetPoint" />
          </mxGeometry>
        </mxCell>
        <mxCell id="JIciVttdm8tCTKpBVyrq-84" value="" style="endArrow=classic;html=1;rounded=0;exitX=0.301;exitY=1.001;exitDx=0;exitDy=0;exitPerimeter=0;entryX=0.301;entryY=0.001;entryDx=0;entryDy=0;entryPerimeter=0;" edge="1" parent="1" source="JIciVttdm8tCTKpBVyrq-1" target="JIciVttdm8tCTKpBVyrq-1">
          <mxGeometry width="50" height="50" relative="1" as="geometry">
            <mxPoint x="70" y="220" as="sourcePoint" />
            <mxPoint x="120" y="170" as="targetPoint" />
          </mxGeometry>
        </mxCell>
        <mxCell id="JIciVttdm8tCTKpBVyrq-85" value="" style="endArrow=classic;html=1;rounded=0;exitX=0.522;exitY=1.017;exitDx=0;exitDy=0;exitPerimeter=0;entryX=0.521;entryY=0.01;entryDx=0;entryDy=0;entryPerimeter=0;" edge="1" parent="1" source="JIciVttdm8tCTKpBVyrq-1" target="JIciVttdm8tCTKpBVyrq-1">
          <mxGeometry width="50" height="50" relative="1" as="geometry">
            <mxPoint x="270" y="230" as="sourcePoint" />
            <mxPoint x="320" y="180" as="targetPoint" />
          </mxGeometry>
        </mxCell>
        <mxCell id="JIciVttdm8tCTKpBVyrq-90" value="" style="endArrow=classic;html=1;rounded=0;exitX=0.648;exitY=0.985;exitDx=0;exitDy=0;exitPerimeter=0;" edge="1" parent="1" source="JIciVttdm8tCTKpBVyrq-1">
          <mxGeometry width="50" height="50" relative="1" as="geometry">
            <mxPoint x="410" y="200" as="sourcePoint" />
            <mxPoint x="460" y="160" as="targetPoint" />
          </mxGeometry>
        </mxCell>
        <mxCell id="JIciVttdm8tCTKpBVyrq-91" value="release/13.1" style="rounded=0;whiteSpace=wrap;html=1;" vertex="1" parent="1">
          <mxGeometry x="480" y="60" width="80" height="20" as="geometry" />
        </mxCell>
        <mxCell id="JIciVttdm8tCTKpBVyrq-93" value="" style="endArrow=classic;html=1;rounded=0;entryX=0.459;entryY=1.058;entryDx=0;entryDy=0;exitX=0.7;exitY=-0.015;exitDx=0;exitDy=0;exitPerimeter=0;entryPerimeter=0;" edge="1" parent="1" source="JIciVttdm8tCTKpBVyrq-1" target="JIciVttdm8tCTKpBVyrq-91">
          <mxGeometry width="50" height="50" relative="1" as="geometry">
            <mxPoint x="468" y="170" as="sourcePoint" />
            <mxPoint x="468" y="130" as="targetPoint" />
          </mxGeometry>
        </mxCell>
        <mxCell id="JIciVttdm8tCTKpBVyrq-94" value="" style="endArrow=classic;html=1;rounded=0;entryX=0.759;entryY=0.006;entryDx=0;entryDy=0;entryPerimeter=0;exitX=0.759;exitY=1.006;exitDx=0;exitDy=0;exitPerimeter=0;" edge="1" parent="1" source="JIciVttdm8tCTKpBVyrq-1" target="JIciVttdm8tCTKpBVyrq-1">
          <mxGeometry width="50" height="50" relative="1" as="geometry">
            <mxPoint x="480" y="220" as="sourcePoint" />
            <mxPoint x="530" y="170" as="targetPoint" />
          </mxGeometry>
        </mxCell>
        <mxCell id="JIciVttdm8tCTKpBVyrq-95" value="release/13.2" style="rounded=0;whiteSpace=wrap;html=1;" vertex="1" parent="1">
          <mxGeometry x="600" y="60" width="80" height="20" as="geometry" />
        </mxCell>
        <mxCell id="JIciVttdm8tCTKpBVyrq-96" value="" style="endArrow=classic;html=1;rounded=0;entryX=0.5;entryY=1;entryDx=0;entryDy=0;exitX=0.814;exitY=-0.049;exitDx=0;exitDy=0;exitPerimeter=0;" edge="1" parent="1" source="JIciVttdm8tCTKpBVyrq-1" target="JIciVttdm8tCTKpBVyrq-95">
          <mxGeometry width="50" height="50" relative="1" as="geometry">
            <mxPoint x="590" y="160" as="sourcePoint" />
            <mxPoint x="640" y="110" as="targetPoint" />
          </mxGeometry>
        </mxCell>
      </root>
    </mxGraphModel>
  </diagram>
</mxfile>
